<?xml version="1.0" standalone="no"?>
<!DOCTYPE svg PUBLIC "-//W3C//DTD SVG 20010904//EN"
 "http://www.w3.org/TR/2001/REC-SVG-20010904/DTD/svg10.dtd">
<svg version="1.0" xmlns="http://www.w3.org/2000/svg"
 width="126.000000pt" height="126.000000pt" viewBox="0 0 126.000000 126.000000"
 preserveAspectRatio="xMidYMid meet">
<metadata>
Created by potrace 1.14, written by Peter Selinger 2001-2017
</metadata>
<g transform="translate(0.000000,126.000000) scale(0.100000,-0.100000)"
fill="#000000" stroke="none">
<path d="M372 908 c-27 -46 -74 -126 -104 -178 -105 -181 -231 -395 -250 -428
l-20 -32 213 2 213 3 64 110 c35 61 79 137 97 170 19 33 37 61 42 62 5 2 54
-75 109 -169 l101 -173 211 -3 211 -2 -68 117 c-37 65 -131 226 -208 358
l-139 240 -211 3 -211 2 -50 -82z"/>
</g>
</svg>
